<svg xmlns="http://www.w3.org/2000/svg" xmlns:svg="http://www.w3.org/2000/svg" xmlns:xlink="http://www.w3.org/1999/xlink" id="svg8" width="393.868" height="393.868" version="1.1" viewBox="0 0 104.211 104.211"><defs id="defs2"><clipPath id="headClip"><path id="path2" d="m 242.822,893.869 c 0,61.251 -36.059,106.284 -94.208,106.284 -54.326,0 -91.436,-45.033 -91.436,-106.284 0,-61.252 37.668,-85.951 90.973,-85.951 53.306,0 94.67,24.699 94.67,85.95 z" style="fill:red"/></clipPath><clipPath id="leftEarClip"><ellipse id="ellipse5" cx="68.304" cy="827.682" rx="23.762" ry="23.111"/></clipPath><clipPath id="rightEarClip"><ellipse id="ellipse8" cx="-231.243" cy="827.682" rx="23.762" ry="23.111" transform="scale(-1,1)" style="fill:#803300"/></clipPath><g id="rainbowBlock"><rect id="rect11" width="159.025" height="12.562" x="182.011" y="79.443" ry="0" style="fill:#fa4d32"/><rect id="rect13" width="159.025" height="12.562" x="182.011" y="92.004" ry="0" style="fill:#fdb020"/><rect id="rect15" width="159.025" height="12.562" x="182.011" y="104.566" ry="0" style="fill:#fdf133"/><rect id="rect17" width="159.025" height="12.562" x="182.011" y="117.128" ry="0" style="fill:#1ce590"/><rect id="rect19" width="159.025" height="12.562" x="182.011" y="129.689" ry="0" style="fill:#13a1e3"/><rect id="rect21" width="159.025" height="12.562" x="182.011" y="142.251" ry="0" style="fill:#7e2ae4"/><rect id="rect23" width="159.025" height="12.562" x="182.011" y="154.813" ry="0" style="fill:#9e4ea5"/></g><g id="rainbowGroup" transform="matrix(1.4142136,-1.4142136,2.1213203,2.1213203,-493.82841,1004.5061)"><g id="g28"><use id="use26" width="100%" height="100%" x="0" y="0" xlink:href="#rainbowBlock"/></g><g id="g32" transform="translate(0,87.5)"><use id="use30" width="100%" height="100%" x="0" y="0" xlink:href="#rainbowBlock"/></g></g></defs><metadata id="metadata5"/><g id="layer1" transform="translate(70.959391,-16.923777)"><circle id="ellipse1234" cx="-15.769" cy="63.674" r="0" style="opacity:1;fill:#f4e3d7;fill-opacity:1;fill-rule:nonzero;stroke:#000;stroke-width:1.32291663;stroke-linecap:round;stroke-linejoin:round;stroke-miterlimit:4;stroke-dasharray:none;stroke-dashoffset:0;stroke-opacity:1"/><circle id="ellipse1236" cx="-15.769" cy="63.674" r="0" style="opacity:1;fill:#f4e3d7;fill-opacity:1;fill-rule:nonzero;stroke:#000;stroke-width:1.32291663;stroke-linecap:round;stroke-linejoin:round;stroke-miterlimit:4;stroke-dasharray:none;stroke-dashoffset:0;stroke-opacity:1"/><g id="g1371" transform="translate(0.79038828,12.700002)"><g id="g1453" transform="translate(-3.8755049)"><g id="g3539" transform="translate(-2.5968653e-6,-2.4027025)"><g id="g1425" transform="translate(0.40637168)"><circle id="circle1421" cx="26.716" cy="73.563" r="8.553" style="opacity:0;fill:#f4e3d7;fill-opacity:1;fill-rule:nonzero;stroke:#000;stroke-width:1.32291663;stroke-linecap:round;stroke-linejoin:round;stroke-miterlimit:4;stroke-dasharray:none;stroke-dashoffset:0;stroke-opacity:1"/><circle style="opacity:1;fill:#f4e3d7;fill-opacity:1;fill-rule:nonzero;stroke:#000;stroke-width:1.32291663;stroke-linecap:round;stroke-linejoin:round;stroke-miterlimit:4;stroke-dasharray:none;stroke-dashoffset:0;stroke-opacity:1" id="path1227" cx="-59.067" cy="73.563" r="8.553"/></g><circle id="path1225" cx="-15.769" cy="63.674" r="44.099" style="opacity:1;fill:#e9c6af;fill-opacity:1;fill-rule:nonzero;stroke:#000;stroke-width:1.32291663;stroke-linecap:round;stroke-linejoin:round;stroke-miterlimit:4;stroke-dasharray:none;stroke-dashoffset:0;stroke-opacity:1"/><path id="circle1325" d="M -21.870499,20.046838 A 44.099472,44.099472 0 0 0 -59.86818,63.673632 44.099472,44.099472 0 0 0 -21.838977,107.30094 44.099472,44.099472 0 0 0 16.159737,63.673632 44.099472,44.099472 0 0 0 -21.870499,20.046838 Z" style="opacity:1;fill:#f4e3d7;fill-opacity:1;fill-rule:nonzero;stroke:none;stroke-width:1.32291663;stroke-linecap:round;stroke-linejoin:round;stroke-miterlimit:4;stroke-dasharray:none;stroke-dashoffset:0;stroke-opacity:1"/><path id="circle1238" d="m -54.192558,42.078052 a 44.099472,44.099472 0 0 0 -5.675622,21.59558 44.099472,44.099472 0 0 0 44.099117,44.099628 44.099472,44.099472 0 0 0 44.099633,-44.099628 44.099472,44.099472 0 0 0 -5.668904,-21.5222 c 5.745225,41.308403 -17.2701856,46.420939 -38.430729,46.420939 -21.17399,0 -45.004831,-4.052457 -38.423495,-46.494319 z" style="opacity:1;fill:#d45500;fill-opacity:1;fill-rule:nonzero;stroke:#000;stroke-width:1.32291663;stroke-linecap:round;stroke-linejoin:round;stroke-miterlimit:4;stroke-dasharray:none;stroke-dashoffset:0;stroke-opacity:1"/><path id="path1309" d="m -54.192558,42.078052 a 44.099472,44.099472 0 0 0 -5.675622,21.59558 44.099472,44.099472 0 0 0 19.075839,36.252568 c 6.194231,3.31764 13.271759,5.20117 20.789945,5.20123 24.3555831,9e-5 44.099711,-19.744048 44.099633,-44.099631 -0.0056,-2.277253 -0.190558,-4.541899 -0.543636,-6.775813 -0.0743,30.245092 -20.4363564,34.320385 -39.322664,34.320385 -21.17399,0 -45.004831,-4.052459 -38.423495,-46.494319 z" style="opacity:1;fill:#ff7f2a;fill-opacity:1;fill-rule:nonzero;stroke:none;stroke-width:1.32291663;stroke-linecap:round;stroke-linejoin:round;stroke-miterlimit:4;stroke-dasharray:none;stroke-dashoffset:0;stroke-opacity:1"/><g id="g1253" transform="translate(0.48664713)"><circle style="opacity:1;fill:#000;fill-opacity:1;fill-rule:nonzero;stroke:#000;stroke-width:1.29575717;stroke-linecap:round;stroke-linejoin:round;stroke-miterlimit:4;stroke-dasharray:none;stroke-dashoffset:0;stroke-opacity:1" id="path1247" cx="-33.494" cy="64.681" r="1.998"/><circle id="circle1249" cx=".983" cy="64.681" r="1.998" style="opacity:1;fill:#000;fill-opacity:1;fill-rule:nonzero;stroke:#000;stroke-width:1.29575717;stroke-linecap:round;stroke-linejoin:round;stroke-miterlimit:4;stroke-dasharray:none;stroke-dashoffset:0;stroke-opacity:1"/></g><rect id="rect1302" width="57.452" height="26.269" x="-44.495" y="22.4" ry="4.438" style="opacity:1;fill:#d45500;fill-opacity:1;fill-rule:nonzero;stroke:none;stroke-width:1.4481411;stroke-linecap:round;stroke-linejoin:round;stroke-miterlimit:4;stroke-dasharray:none;stroke-dashoffset:0;stroke-opacity:1"/><rect id="rect1273" width="43.566" height="7.408" x="-37.953" y="42.542" ry="3.704" style="opacity:1;fill:#ccc;fill-opacity:1;fill-rule:nonzero;stroke:#000;stroke-width:1.32291663;stroke-linecap:round;stroke-linejoin:round;stroke-miterlimit:4;stroke-dasharray:none;stroke-dashoffset:0;stroke-opacity:1"/><rect style="opacity:1;fill:#ccc;fill-opacity:1;fill-rule:nonzero;stroke:#000;stroke-width:1.32291663;stroke-linecap:round;stroke-linejoin:round;stroke-miterlimit:4;stroke-dasharray:none;stroke-dashoffset:0;stroke-opacity:1" id="rect1275" width="28.411" height="7.408" x="-22.798" y="42.542" ry="3.704"/><path style="opacity:1;fill:none;fill-opacity:1;fill-rule:nonzero;stroke:#000;stroke-width:1.32291663;stroke-linecap:round;stroke-linejoin:round;stroke-miterlimit:4;stroke-dasharray:none;stroke-dashoffset:0;stroke-opacity:1" id="path1314" d="m -54.192558,42.078052 a 44.099472,44.099472 0 0 0 -5.675622,21.59558 44.099472,44.099472 0 0 0 44.099117,44.099628 44.099472,44.099472 0 0 0 44.099633,-44.099628 44.099472,44.099472 0 0 0 -5.668904,-21.5222 c 5.745225,41.308403 -17.2701856,46.420939 -38.430729,46.420939 -21.17399,0 -45.004831,-4.052457 -38.423495,-46.494319 z"/><path id="circle1261" d="m -14.755171,11.393103 a 42.956231,38.567145 0 0 0 -22.49165,5.156791 42.956231,38.567145 0 0 0 -21.478275,33.400028 h 26.174113 v -2.467033 c 2.270051,-12.736687 2.466226,-12.319145 16.78192,-12.319145 14.3156933,0 14.5775193,-0.02867 15.9804196,12.319145 v 2.467033 H 27.187488 A 42.956231,38.567145 0 0 0 5.7092122,16.549894 42.956231,38.567145 0 0 0 -14.755171,11.393103 Z" style="opacity:1;fill:#4d4d4d;fill-opacity:1;fill-rule:nonzero;stroke:#000;stroke-width:1.32299995;stroke-linecap:round;stroke-linejoin:round;stroke-miterlimit:4;stroke-dasharray:none;stroke-dashoffset:0;stroke-opacity:1"/><ellipse id="path1263" cx="-15.769" cy="10.626" rx="2.847" ry="1.157" style="opacity:1;fill:#000;fill-opacity:1;fill-rule:nonzero;stroke:#000;stroke-width:.88070983;stroke-linecap:round;stroke-linejoin:round;stroke-miterlimit:4;stroke-dasharray:none;stroke-dashoffset:0;stroke-opacity:1"/><circle id="path1296" cx="-17.198" cy="46.246" r=".945" style="opacity:1;fill:#000;fill-opacity:1;fill-rule:nonzero;stroke:none;stroke-width:2.20486116;stroke-linecap:round;stroke-linejoin:round;stroke-miterlimit:4;stroke-dasharray:none;stroke-dashoffset:0;stroke-opacity:1"/><circle style="opacity:1;fill:#000;fill-opacity:1;fill-rule:nonzero;stroke:none;stroke-width:2.20486116;stroke-linecap:round;stroke-linejoin:round;stroke-miterlimit:4;stroke-dasharray:none;stroke-dashoffset:0;stroke-opacity:1" id="circle1298" cx="-5.67" cy="46.246" r=".945"/><circle id="circle1300" cx="-11.339" cy="46.246" r=".945" style="opacity:1;fill:#000;fill-opacity:1;fill-rule:nonzero;stroke:none;stroke-width:2.20486116;stroke-linecap:round;stroke-linejoin:round;stroke-miterlimit:4;stroke-dasharray:none;stroke-dashoffset:0;stroke-opacity:1"/><path id="path1244" d="m 4.7790575,-89.546234 a 20.54796,12.028072 0 0 1 -10.2739804,10.416616 20.54796,12.028072 0 0 1 -20.5479601,0 20.54796,12.028072 0 0 1 -10.27398,-10.416617 l 20.54796,10e-7 z" transform="scale(1,-1)" style="opacity:1;fill:#d45500;fill-opacity:1;fill-rule:nonzero;stroke:#000;stroke-width:1.65377569;stroke-linecap:round;stroke-linejoin:round;stroke-miterlimit:4;stroke-dasharray:none;stroke-dashoffset:0;stroke-opacity:1"/><path id="path1316" d="m -17.865576,77.592678 a 20.54796,12.028072 0 0 0 -8.177279,1.536859 20.54796,12.028072 0 0 0 -10.273792,10.416934 h 16.314251 4.233333 16.31476612 A 20.54796,12.028072 0 0 0 -9.7280882,79.129537 20.54796,12.028072 0 0 0 -17.865576,77.592678 Z" style="opacity:1;fill:#ff7f2a;fill-opacity:1;fill-rule:nonzero;stroke:none;stroke-width:1.65377569;stroke-linecap:round;stroke-linejoin:round;stroke-miterlimit:4;stroke-dasharray:none;stroke-dashoffset:0;stroke-opacity:1"/><path style="opacity:1;fill:none;fill-opacity:1;fill-rule:nonzero;stroke:#000;stroke-width:1.65377569;stroke-linecap:round;stroke-linejoin:round;stroke-miterlimit:4;stroke-dasharray:none;stroke-dashoffset:0;stroke-opacity:1" id="path1321" d="m 4.7790575,-89.546234 a 20.54796,12.028072 0 0 1 -10.2739804,10.416616 20.54796,12.028072 0 0 1 -20.5479601,0 20.54796,12.028072 0 0 1 -10.27398,-10.416617 l 20.54796,10e-7 z" transform="scale(1,-1)"/><g id="g1336" transform="translate(-0.46762363)"><circle style="opacity:1;fill:#e9afaf;fill-opacity:1;fill-rule:nonzero;stroke:none;stroke-width:1.32291663;stroke-linecap:round;stroke-linejoin:round;stroke-miterlimit:4;stroke-dasharray:none;stroke-dashoffset:0;stroke-opacity:1" id="path1330" cx="-39.021" cy="73.162" r="3.875"/><circle id="circle1332" cx="8.419" cy="73.162" r="3.875" style="opacity:1;fill:#e9afaf;fill-opacity:1;fill-rule:nonzero;stroke:none;stroke-width:1.32291663;stroke-linecap:round;stroke-linejoin:round;stroke-miterlimit:4;stroke-dasharray:none;stroke-dashoffset:0;stroke-opacity:1"/></g><path style="opacity:1;fill:#4d4d4d;fill-opacity:1;fill-rule:nonzero;stroke:#000;stroke-width:1.32299995;stroke-linecap:round;stroke-linejoin:round;stroke-miterlimit:4;stroke-dasharray:none;stroke-dashoffset:0;stroke-opacity:1" id="path1338" d="m -14.755171,11.393103 a 42.956231,38.567145 0 0 0 -22.49165,5.156791 42.956231,38.567145 0 0 0 -21.478275,33.400028 h 26.174113 v -2.467033 c 2.270051,-12.736687 2.466226,-12.319145 16.78192,-12.319145 14.3156933,0 14.5775193,-0.02867 15.9804196,12.319145 v 2.467033 H 27.187488 A 42.956231,38.567145 0 0 0 5.7092122,16.549894 42.956231,38.567145 0 0 0 -14.755171,11.393103 Z"/><g id="g1636" transform="translate(0.36509806)"><path id="path1628" d="m -41.078424,61.549441 c -0.01653,-2.057649 1.001512,-3.986029 2.709878,-5.133057 1.708367,-1.147028 3.878619,-1.359327 5.776883,-0.565107" style="opacity:1;fill:none;fill-opacity:1;fill-rule:nonzero;stroke:#000;stroke-width:2.14321518;stroke-linecap:round;stroke-linejoin:round;stroke-miterlimit:4;stroke-dasharray:none;stroke-dashoffset:0;stroke-opacity:1"/><path style="opacity:1;fill:none;fill-opacity:1;fill-rule:nonzero;stroke:#000;stroke-width:2.14321518;stroke-linecap:round;stroke-linejoin:round;stroke-miterlimit:4;stroke-dasharray:none;stroke-dashoffset:0;stroke-opacity:1" id="path1632" d="m 8.8106199,61.549441 c 0.01653,-2.057649 -1.001512,-3.986029 -2.709878,-5.133057 -1.708367,-1.147028 -3.878619,-1.359327 -5.776883,-0.565107"/></g></g></g></g></g></svg>